<?xml version="1.0" encoding="UTF-8" standalone="no"?>
<!-- Created with Inkscape (http://www.inkscape.org/) -->

<svg
   width="87.296997mm"
   height="13.634674mm"
   viewBox="0 0 87.296997 13.634674"
   version="1.1"
   id="svg2759"
   xmlns="http://www.w3.org/2000/svg"
   xmlns:svg="http://www.w3.org/2000/svg">
  <defs
     id="defs2756" />
  <g
     id="layer1"
     transform="translate(-61.922319,-104.90006)">
    <path
       id="text3130"
       style="font-size:11.2889px;font-family:Hypik;-inkscape-font-specification:Hypik;fill:#000000;stroke-width:0.264583"
       d="m 83.123092,104.90006 2.968811,2.98018 -6.355685,6.36705 h 8.229472 l 5.227071,-5.23792 h -4.481897 l 1.117761,-1.12913 h 0.02222 l -2.991548,-2.98018 z m 62.359498,1.48983 -6.35568,6.35568 -0.37207,-0.37258 3.36362,-3.36362 h -3.73621 l -5.22707,5.23792 h 3.73672 l 2.6076,2.60759 h 3.73672 l -3.72536,-3.73672 h 2.98018 l 6.72828,-6.72827 z m -78.322348,2.61948 -5.237923,5.23792 h 8.229471 l 1.117762,-1.12913 h -4.492749 l 2.991548,-2.99155 H 74.2611 l 1.117761,-1.11724 z m 8.90695,0 -5.237924,5.23792 h 4.492749 l -0.37207,0.37259 h -4.493266 l -2.235005,2.235 h 8.218103 l 7.846032,-7.84551 h -3.736722 l -4.10931,4.10879 h -0.745175 l 4.10931,-4.10879 z m 17.78031,0 -5.23844,5.23792 h 8.229988 l 1.117245,-1.12913 h -4.492749 l 0.383956,-0.37259 h 4.48138 l 3.736718,-3.7362 h -0.56379 z m 8.872848,0 -5.237928,5.23792 h 3.736718 l 4.1088,-4.12068 h 0.75654 l -1.5012,1.50172 h 3.73621 l 2.61947,-2.61896 h -4.48189 z m 8.83925,0 -7.84552,7.84551 h 4.48138 l 2.6076,-2.60759 h 3.74809 l 5.22655,-5.23792 h -4.48138 z m 8.91832,0 -5.22707,5.23792 h 8.21862 l 5.22655,-5.23792 h -3.73672 l -4.1088,4.10879 h -0.74517 l 4.10931,-4.10879 z m 8.95346,0 -5.22811,5.23792 h 3.72536 l 4.12016,-4.12068 h 0.74517 l -4.10931,4.12068 h 3.73672 l 5.22708,-5.23792 h -1.1002 -3.3817 z m -41.849129,1.11724 h 0.756026 l -2.991548,2.99155 h -0.756543 z m 8.872843,0 h 0.756543 l -1.501717,1.50172 h -0.745174 z m 17.723466,0 h 0.74517 l -2.99154,2.99155 h -0.74518 z" />
    <g
       aria-label="GAMING"
       id="text3188"
       style="font-size:5.60081px;font-family:Hypik;-inkscape-font-specification:Hypik;fill:#ffffff;stroke-width:0.300044">
      <path
         d="m 79.363627,114.61953 -3.892563,3.89256 h 4.07739 l 2.038695,-2.03869 h -1.853868 l -0.184827,0.18482 -1.293787,1.29939 h -0.375254 l 2.783602,-2.7836 h 0.369654 l -0.744908,0.74491 h 1.853868 l 0.744908,-0.74491 0.55448,-0.55448 z"
         style="fill:#000000"
         id="path849" />
      <path
         d="m 83.715459,114.61953 -3.892563,3.89816 h 1.853868 l 1.299388,-1.29938 h 0.369654 l -1.299388,1.29938 h 1.853868 l 3.898164,-3.89816 z m -0.184826,2.03869 1.484214,-1.47861 h 0.369654 l -1.478614,1.47861 z"
         style="fill:#000000"
         id="path851" />
      <path
         d="m 88.128898,114.61953 -3.892563,3.89256 h 1.853868 l 3.338083,-3.33808 h 0.369653 l -3.338083,3.33808 h 1.853868 l 3.338083,-3.33808 h 0.369654 l -3.338083,3.33808 h 1.853868 l 3.898164,-3.89256 z"
         style="fill:#000000"
         id="path853" />
      <path
         d="m 94.765855,114.61953 -3.892563,3.89256 h 1.853868 l 3.892563,-3.89256 z"
         style="fill:#000000"
         id="path855" />
      <path
         d="m 96.899766,114.61953 -3.892563,3.89256 h 1.853868 l 3.338083,-3.33808 h 0.369653 l -3.338082,3.33808 h 1.853868 l 3.892567,-3.89256 z"
         style="fill:#000000"
         id="path857" />
      <path
         d="m 101.2516,114.61953 -3.892566,3.89256 h 4.077386 l 2.0387,-2.03869 h -1.85387 l -0.18483,0.18482 -1.29378,1.29939 h -0.375257 l 2.783607,-2.7836 h 0.36965 l -0.74491,0.74491 h 1.85387 l 0.74491,-0.74491 0.55448,-0.55448 z"
         style="fill:#000000"
         id="path859" />
    </g>
    <g
       aria-label="GEAR"
       id="text3188-6"
       style="font-size:5.60081px;font-family:Hypik;-inkscape-font-specification:Hypik;fill:#ffffff;stroke-width:0.300044">
      <path
         d="m 111.1333,114.61977 -3.89257,3.89256 h 4.07739 l 2.0387,-2.0387 h -1.85387 l -0.18483,0.18483 -1.29378,1.29939 h -0.37526 l 2.7836,-2.7836 h 0.36966 l -0.74491,0.7449 h 1.85387 l 0.74491,-0.7449 0.55448,-0.55448 z"
         style="fill:#000000"
         id="path862" />
      <path
         d="m 116.97494,117.21294 2.59318,-2.59317 h -4.08299 l -3.89257,3.89256 h 4.07739 l 0.56009,-0.55448 h -2.22913 l 0.74491,-0.74491 z m -0.19042,-2.03309 h 0.36965 l -1.47861,1.47861 h -0.37526 z"
         style="fill:#000000"
         id="path864" />
      <path
         d="m 119.84256,114.61977 -3.89257,3.89816 h 1.85387 l 1.29939,-1.29939 h 0.36965 l -1.29938,1.29939 h 1.85386 l 3.89817,-3.89816 z m -0.18483,2.03869 1.48421,-1.47861 h 0.36966 l -1.47862,1.47861 z"
         style="fill:#000000"
         id="path866" />
      <path
         d="m 125.74581,117.23534 2.59318,-2.59317 H 124.256 l -3.89257,3.89256 h 1.85387 l 0.92974,-0.92973 0.92973,0.92973 h 1.85387 l -1.29939,-1.29939 z m -1.67464,-0.55448 1.48421,-1.48421 h 0.36966 l -1.47862,1.48421 z"
         style="fill:#000000"
         id="path868" />
    </g>
  </g>
</svg>
